<?xml version="1.0" encoding="UTF-8"?><svg id="popisky" xmlns="http://www.w3.org/2000/svg" viewBox="0 0 9.7 19.5"><defs><style>.cls-1{fill:#493e3e;stroke-width:0px;}</style></defs><path class="cls-1" d="m9.67,9.98c.01-.08.03-.15.03-.22,0-.08-.01-.15-.03-.22-.01-.07-.03-.13-.05-.19-.03-.08-.08-.16-.13-.23-.02-.03-.03-.07-.06-.1L2.01.4C1.6-.08.88-.14.4.28-.08.69-.14,1.41.28,1.89l6.77,7.86L.28,17.61c-.41.48-.36,1.2.12,1.62.22.19.48.28.75.28.32,0,.64-.13.87-.4l7.42-8.61s.03-.07.06-.1c.05-.07.1-.15.13-.23.02-.06.04-.12.05-.19Z"/></svg>