<?xml version="1.0" encoding="UTF-8"?><svg id="popisky" xmlns="http://www.w3.org/2000/svg" viewBox="0 0 1454.82 126.67"><defs><style>.cls-1{fill:#493e3e;stroke-width:0px;}</style></defs><path class="cls-1" d="m31.87,124.3c-18.84,0-29.97-9.74-29.97-26.05,0-6.58.38-11.63.38-17.45v-6.07c0-16.44-.51-33-1.26-41.6h13.91c-.76,8.73-1.26,25.42-1.26,41.48v15.55c0,16.19,6.32,23.52,20.11,23.52,8.22,0,16.44-3.16,25.16-9.99v-28.96c0-16.44-.51-33-1.26-41.6h13.91c-.76,8.73-1.26,25.42-1.26,41.48v6.07c0,16.44.51,33,1.26,41.6h-10.62c-.38-2.02-.89-5.82-1.39-9.99-6.2,4.3-13.28,8.35-18.59,11-2.15.63-5.56,1.01-9.1,1.01Z"/><path class="cls-1" d="m107.36,91.04c-4.43,0-7.59-3.29-7.59-7.97,0-5.18,3.16-8.73,8.09-8.73,4.55,0,7.59,3.29,7.59,7.97,0,5.18-3.16,8.73-8.09,8.73Z"/><path class="cls-1" d="m197.27,122.28c-2.15-4.93-16.31-29.08-42.23-73.59v31.99c0,16.44.51,33,1.26,41.6h-12.77c.76-8.73,1.26-25.42,1.26-41.48v-6.07c0-16.44-.51-33-1.26-41.6h16.31c3.16,7.33,17.83,32.24,41.98,73.97v-32.37c0-16.44-.51-33-1.26-41.6h12.77c-.76,8.73-1.26,25.42-1.26,41.48v6.07c0,16.44.51,33,1.26,41.6h-16.06Z"/><path class="cls-1" d="m254.93,100.15c-3.79,11.38-6.45,19.22-7.21,22.13h-12.77c-.13-.51-.13-4.55,0-4.93,6.7-14.04,20.23-47.8,34.27-83.96l11.38-.51c13.91,36.67,27.31,70.43,33.89,84.47.13.38.13,4.43,0,4.93h-13.28c-.89-2.91-3.54-10.87-7.59-22.26-3.67-.25-6.95-.25-12.14-.25-13.28,0-20.86.13-26.55.38Zm35.03-10.24c-4.43-12.27-9.86-27.31-16.06-44.13-6.07,16.82-11.25,31.99-15.55,44.26,2.53.13,5.31.13,8.98.13,10.5,0,17.45-.13,22.63-.25Zm-24.78-65.75l-3.29-6.32c9.48-5.56,19.22-11.51,26.17-16.06l6.45,8.73c.25.63.25,2.53,0,3.16-6.83,2.02-18.08,6.2-29.34,10.5Z"/><path class="cls-1" d="m356.6,124.81c-9.74,0-19.98-3.54-26.3-8.6l4.8-12.39c7.97,6.83,16.06,10.5,24.78,10.5,9.48,0,15.17-4.93,15.17-13.4,0-6.7-3.54-10.87-12.39-14.79l-12.77-5.69c-11.89-5.31-17.58-12.65-17.58-23.52,0-8.09,3.03-14.54,8.98-18.84,6.2-4.43,17.58-7.46,18.97-7.46,8.35,0,16.94,2.4,24.15,6.32l-4.55,12.27c-.51.13-2.4.13-2.91,0l-17.96-8.6h-.76c-9.36,0-14.79,4.81-14.79,13.02,0,6.58,3.67,10.75,13.02,14.92l12.77,5.69c11.63,5.18,16.94,12.52,16.94,23.39,0,8.35-3.04,14.79-8.98,18.97-6.2,4.43-19.22,8.22-20.61,8.22Z"/><path class="cls-1" d="m416.29,91.04c-4.43,0-7.59-3.29-7.59-7.97,0-5.18,3.16-8.73,8.09-8.73,4.55,0,7.59,3.29,7.59,7.97,0,5.18-3.16,8.73-8.09,8.73Z"/><path class="cls-1" d="m476.48,122.53c-13.66-36.67-26.68-70.43-33.13-84.47-.13-.38-.13-4.43,0-4.93h13.4c1.77,6.45,12.14,36.42,26.43,76,13.66-39.58,23.65-69.55,25.29-76h12.9c.13.51.13,4.55,0,4.93-6.58,14.04-19.85,47.8-33.51,83.96l-11.38.51Z"/><path class="cls-1" d="m598.89,122.66c-11.76-.25-25.67-.38-35.03-.38h-20.11c.76-8.73,1.26-25.42,1.26-41.48v-6.07c0-16.44-.51-33-1.26-41.85,8.98.13,15.43.25,23.39.25,11.13,0,24.4-.25,30.22-.51l-1.52,11.76c-.51.25-3.79.51-4.3.38-4.68-1.01-14.67-1.77-23.9-1.77-3.54,0-7.21.13-10.62.25-.38,8.09-.63,18.21-.63,28.32,13.53-.13,24.91-.63,29.72-1.14l-1.26,12.01c-5.18-.51-16.06-1.01-28.45-1.14,0,11.13.25,22.26.63,30.85,4.05.13,8.6.25,12.9.25,10.37,0,21.62-.63,26.17-1.64.51-.13,3.92.25,4.3.38l-1.52,11.51Z"/><path class="cls-1" d="m628.48,91.04c-4.43,0-7.59-3.29-7.59-7.97,0-5.18,3.16-8.73,8.09-8.73,4.55,0,7.59,3.29,7.59,7.97,0,5.18-3.16,8.73-8.09,8.73Z"/><path class="cls-1" d="m688.67,122.53c-13.66-36.67-26.68-70.43-33.13-84.47-.13-.38-.13-4.43,0-4.93h13.4c1.77,6.45,12.14,36.42,26.43,76,13.66-39.58,23.65-69.55,25.29-76h12.9c.13.51.13,4.55,0,4.93-6.58,14.04-19.85,47.8-33.51,83.96l-11.38.51Z"/><path class="cls-1" d="m793.63,87.12c11.25,13.02,22,24.78,27.69,30.22.13.51.13,4.43,0,4.93l-13.53.38c-4.3-6.07-14.54-18.59-26.17-31.99-3.41,0-7.84-.38-13.02-.76.25,13.15.63,25.42,1.26,32.37h-13.91c.76-8.73,1.26-25.42,1.26-41.48v-6.07c0-16.44-.51-33-1.26-41.6,8.35,0,29.34-1.64,30.6-1.64,17.2,0,28.71,10.88,28.71,27.19,0,10.24-4.43,18.46-13.02,24.03-2.53,1.64-5.69,3.16-8.6,4.43Zm8.85-26.05c0-12.27-7.46-19.6-20.11-19.6-2.78,0-7.97.25-13.15.63-.38,8.98-.63,20.86-.63,32.5v5.31c5.06.38,10.24.63,13.4.63,12.9,0,20.48-7.21,20.48-19.47Z"/><path class="cls-1" d="m864.7,124.81c-9.74,0-19.98-3.54-26.3-8.6l4.8-12.39c7.97,6.83,16.06,10.5,24.78,10.5,9.48,0,15.17-4.93,15.17-13.4,0-6.7-3.54-10.87-12.39-14.79l-12.77-5.69c-11.89-5.31-17.58-12.65-17.58-23.52,0-8.09,3.03-14.54,8.98-18.84,6.2-4.43,17.58-7.46,18.97-7.46,8.35,0,16.94,2.4,24.15,6.32l-4.55,12.27c-.51.13-2.4.13-2.91,0l-17.96-8.6h-.76c-9.36,0-14.79,4.81-14.79,13.02,0,6.58,3.67,10.75,13.02,14.92l12.77,5.69c11.63,5.18,16.95,12.52,16.95,23.39,0,8.35-3.04,14.79-8.98,18.97-6.2,4.43-19.22,8.22-20.61,8.22Zm-2.66-101.54c-4.68-5.06-12.65-12.52-17.32-16.82l5.31-5.94c3.54,2.78,10.88,8.47,17.32,13.02,3.29-2.4,9.61-7.59,16.19-13.53l4.93,5.56c-4.81,4.68-11.51,11.51-16.44,17.07l-9.99.63Z"/><path class="cls-1" d="m957.77,124.81c-25.92,0-43.25-18.59-43.25-46.41,0-16.69,6.2-29.46,18.21-37.43,9.74-6.45,24.15-10.37,25.54-10.37,25.92,0,43.24,18.59,43.24,46.53,0,16.56-6.2,29.34-18.21,37.3-9.74,6.45-24.15,10.37-25.54,10.37Zm1.77-10.75c17.45,0,28.83-12.77,28.83-34.39,0-23.01-12.77-38.31-31.87-38.31-17.45,0-28.83,12.77-28.83,34.39,0,23.01,12.77,38.31,31.87,38.31Z"/><path class="cls-1" d="m1049.83,122.53c-13.66-36.67-26.68-70.43-33.13-84.47-.13-.38-.13-4.43,0-4.93h13.4c1.77,6.45,12.14,36.42,26.43,76,13.66-39.58,23.65-69.55,25.29-76h12.9c.13.51.13,4.55,0,4.93-6.58,14.04-19.85,47.8-33.51,83.96l-11.38.51Z"/><path class="cls-1" d="m1117.11,122.28c.76-8.73,1.26-25.42,1.26-41.48v-6.07c0-16.44-.51-33-1.26-41.6h13.91c-.76,8.73-1.26,25.42-1.26,41.48v6.07c0,16.44.51,33,1.26,41.6h-13.91Z"/><path class="cls-1" d="m1198.79,124.68c-25.8,0-41.86-17.7-41.86-44.26,0-17.45,6.96-32.37,18.59-40.08,8.98-5.94,23.52-9.74,25.04-9.74,7.71,0,17.96,2.66,25.79,6.7l-4.43,11.89c-.51.13-2.4.13-2.91,0l-17.07-7.71c-1.01-.13-2.02-.13-3.16-.13-17.7,0-29.21,13.28-29.21,35.79s11.89,36.29,31.99,36.29c7.71,0,15.43-2.02,23.39-6.32l3.41,8.85c-10.62,5.94-19.6,8.72-29.59,8.72Z"/><path class="cls-1" d="m1248.62,24.15l-3.29-6.32c9.48-5.56,19.22-11.51,26.18-16.06l6.45,8.73c.25.63.25,2.53,0,3.16-6.83,2.02-18.08,6.2-29.34,10.5Zm2.53,98.12c.76-8.73,1.26-25.42,1.26-41.48v-6.07c0-16.44-.51-33-1.26-41.6h13.91c-.76,8.73-1.26,25.42-1.26,41.48v6.07c0,16.44.51,33,1.26,41.6h-13.91Z"/><path class="cls-1" d="m1332.84,124.68c-25.8,0-41.86-17.7-41.86-44.26,0-17.45,6.96-32.37,18.59-40.08,8.98-5.94,23.52-9.74,25.04-9.74,7.71,0,17.96,2.66,25.79,6.7l-4.43,11.89c-.51.13-2.4.13-2.91,0l-17.07-7.71c-1.01-.13-2.02-.13-3.16-.13-17.7,0-29.21,13.28-29.21,35.79s11.89,36.29,31.99,36.29c7.71,0,15.43-2.02,23.39-6.32l3.41,8.85c-10.62,5.94-19.6,8.72-29.59,8.72Z"/><path class="cls-1" d="m1397.83,82.7c0,15.81.51,31.36,1.26,39.58h-13.91c.76-8.73,1.26-25.42,1.26-41.48v-6.07c0-16.44-.51-33-1.26-41.6h13.91c-.76,8.22-1.26,23.65-1.26,38.82,4.68.25,8.35.38,14.67.38,15.17,0,22.89-.13,28.83-.51,0-15.43-.51-30.6-1.26-38.69h13.91c-.76,8.73-1.26,25.42-1.26,41.48v6.07c0,16.44.51,33,1.26,41.6h-13.91c.76-8.35,1.26-24.15,1.26-39.71-4.68-.25-8.35-.38-14.67-.38-15.17,0-22.89.13-28.83.51Z"/></svg>