<?xml version="1.0" encoding="UTF-8"?><svg id="popisky" xmlns="http://www.w3.org/2000/svg" viewBox="0 0 109.29 109.31"><defs><style>.cls-1{fill:#493e3e;stroke-width:0px;}</style></defs><path class="cls-1" d="m97.58,0H11.71C5.24,0,0,5.24,0,11.71v85.87c0,6.47,5.24,11.71,11.71,11.71h33.48v-37.16h-15.37v-17.49h15.37v-13.33c0-15.16,9.03-23.54,22.85-23.54,6.62,0,13.54,1.18,13.54,1.18v14.88h-7.63c-7.52,0-9.86,4.66-9.86,9.45v11.36h16.78l-2.68,17.49h-14.1v37.16h33.48c6.47,0,11.71-5.24,11.71-11.71V11.71c0-6.47-5.24-11.71-11.71-11.71Z"/></svg>