<?xml version="1.0" encoding="UTF-8"?><svg id="popisky" xmlns="http://www.w3.org/2000/svg" viewBox="0 0 109.35 109.33"><defs><style>.cls-1{fill:#eee3d7;stroke-width:0px;}</style></defs><path class="cls-1" d="m54.69,26.63c-15.52,0-28.03,12.51-28.03,28.03s12.51,28.03,28.03,28.03,28.03-12.51,28.03-28.03-12.51-28.03-28.03-28.03Zm0,46.25c-10.03,0-18.22-8.17-18.22-18.22s8.17-18.22,18.22-18.22,18.22,8.17,18.22,18.22-8.2,18.22-18.22,18.22h0Zm35.71-47.4c0,3.63-2.93,6.54-6.54,6.54s-6.54-2.93-6.54-6.54,2.93-6.54,6.54-6.54,6.54,2.93,6.54,6.54Zm18.56,6.64c-.41-8.76-2.42-16.52-8.83-22.91C93.74,2.82,85.99.82,77.23.38,68.2-.13,41.15-.13,32.12.38c-8.73.41-16.49,2.42-22.91,8.81C2.8,15.58.82,23.34.38,32.1-.13,41.12-.13,68.18.38,77.2c.41,8.76,2.42,16.52,8.83,22.91,6.42,6.39,14.15,8.39,22.91,8.83,9.03.51,36.08.51,45.11,0,8.76-.41,16.52-2.42,22.91-8.83,6.39-6.39,8.39-14.15,8.83-22.91.51-9.03.51-36.06,0-45.08h0Zm-11.66,54.77c-1.9,4.78-5.59,8.46-10.39,10.39-7.2,2.85-24.27,2.2-32.23,2.2s-25.05.63-32.23-2.2c-4.78-1.9-8.46-5.59-10.39-10.39-2.85-7.2-2.2-24.27-2.2-32.23s-.63-25.05,2.2-32.23c1.9-4.78,5.59-8.46,10.39-10.39,7.2-2.85,24.27-2.2,32.23-2.2s25.05-.63,32.23,2.2c4.78,1.9,8.46,5.59,10.39,10.39,2.85,7.2,2.2,24.27,2.2,32.23s.66,25.05-2.2,32.23Z"/></svg>