<?xml version="1.0" encoding="UTF-8"?><svg id="popisky" xmlns="http://www.w3.org/2000/svg" viewBox="0 0 367.26 127.41"><defs><style>.cls-1{fill:#493e3e;stroke-width:0px;}</style></defs><g id="obr_logo"><path class="cls-1" d="m2.78,124.98c-1.2-.4-2.34-.83-2.45-2.37-.1-1.4.61-2.49,2-2.65,1.34-.16,2.71-.15,4.06-.14,9.08.09,18.15-.13,27.15-1.57,2.83-.45,5.62-1.13,8.76-1.77-1.71-1.14-3.19-2.03-4.56-3.06-7.49-5.65-12.21-12.91-13.17-22.42-.78-7.67,1.68-14.22,6.9-19.68,4.17-4.35,9.48-6.65,15.5-7.31,3.91-.43,7.83-.49,11.71.07,2,.29,3.95.94,5.92,1.4.4.09.87.19,1.24.06,6.68-2.25,13.49-2.36,20.34-1.09,6.15,1.14,11.14,4.27,14.93,9.24,5.06,6.63,6.18,14.03,4.07,21.99-2.28,8.59-7.49,14.94-14.98,19.55-.24.15-.48.29-.71.45-.27.17-.53.35-1.01.66,1.82.43,3.45.84,5.1,1.19,10.2,2.15,20.54,2.39,30.91,2.28,6.08-.06,12.15-.17,18.23-.35,5.95-.18,11.89-.48,17.88-.9-1-.32-2.02-.61-3.01-.97-9.01-3.3-17.16-8.02-23.88-14.94-8.22-8.47-13.03-18.57-13.8-30.43-.46-7.01,1.08-13.64,4.32-19.87.63-1.22,1.64-1.69,2.99-1.33,8.7,2.29,17.5,4.06,26.39,5.45,8.02,1.26,16.08,2.09,24.21,2.38,11.99.43,23.88-.53,35.71-2.4,8.84-1.4,17.61-3.13,26.27-5.41,1.49-.39,2.58.17,3.23,1.51,2.86,5.8,4.35,11.93,4.17,18.39-.14,5.14-1.18,10.15-3.03,14.96-3.7,9.65-9.96,17.29-18.4,23.22-5.73,4.02-11.89,7.15-18.6,9.18-.26.08-.51.18-.75.38,21.66,1.12,43.32,1.93,65.06-.09-.36-.19-.71-.38-1.07-.56-4.17-2.05-7.81-4.76-10.82-8.35-3.03-3.61-4.9-7.7-5.76-12.32-.88-4.76-.21-9.29,1.86-13.63.78-1.63,1.76-2.02,3.52-1.59,9.22,2.27,18.54,3.89,28.05,4.01,7.18.09,14.29-.61,21.33-2.01,3.25-.65,6.48-1.39,9.72-2.09,1.37-.3,2.27.08,2.95,1.41,2.56,5.06,2.98,10.29,1.58,15.81-1.56,6.13-5.03,10.92-9.81,14.81-1.93,1.57-4.25,2.66-6.39,3.96-.33.2-.67.36-.98.76,3.01.22,6.02.51,9.03.65,14.83.7,29.66.46,44.49-.13,1.56-.06,3.12-.13,4.68-.16,1.73-.03,2.7.77,2.83,2.27.13,1.5-.66,2.48-2.38,2.7-1.35.17-2.71.17-4.07.2-7.36.19-14.71.36-22.06.54-.43.01-.86.09-1.29.14h-14.16c-2.5-.16-5.01-.29-7.51-.48-7.05-.53-14.1-1.1-21.14-1.63-2.38-.18-4.79-.58-7.15-.41-8.33.57-16.64,1.36-24.96,2.04-2.54.21-5.09.33-7.63.48h-13.44c-.43-.05-.86-.13-1.3-.14-7.95-.2-15.91-.3-23.86-.6-6.51-.25-13.02-.68-19.52-1.12-7.26-.49-14.49-.79-21.79-.32-14.52.92-29.07,1.36-43.61,1.99-1.47.06-2.94.13-4.41.2h-9.84c-.47-.06-.94-.16-1.41-.18-2.31-.11-4.63-.16-6.94-.29-8.81-.5-17.4-2.21-25.85-4.71-.67-.2-1.51-.21-2.18,0-4.79,1.53-9.72,2.39-14.72,2.41-5.05.02-10.01-.87-14.85-2.35-.61-.18-1.36-.25-1.95-.07-10.54,3.2-21.31,4.85-32.32,4.99-.67,0-1.34.13-2.01.2H2.78ZM127.85,56.42c-.53,1.29-1.22,2.61-1.61,4.02-2.07,7.42-1.82,14.82.72,22.05,3.64,10.34,10.42,18.25,19.6,24.09,8.1,5.15,16.95,8.22,26.46,9.66,8.06,1.22,16.04,1,23.98-.46,9.53-1.76,18.38-5.33,26.26-11.09,10.6-7.76,17.3-17.9,18.69-31.17.59-5.61-.06-11.08-2.32-16.31-.27-.62-.49-.94-1.31-.73-8.74,2.29-17.59,4.05-26.53,5.26-6.09.83-12.22,1.47-18.35,1.95-7.26.56-14.53.37-21.81-.1-9.07-.59-18.03-1.93-26.95-3.61-5.57-1.05-11.09-2.33-16.84-3.55Zm131.72,30.77c-.2.62-.37,1.06-.49,1.51-.86,3.33-.82,6.67.17,9.94,1.92,6.35,6.15,10.85,11.83,14,6.72,3.73,13.97,5.06,21.62,4.17,7.78-.9,14.67-3.68,20.12-9.51,3.95-4.22,5.99-9.21,5.75-15.01-.07-1.66-.55-3.31-.88-5.16-19.54,5.34-38.81,5.31-58.13.06Zm-187.82-17.78c.31.23.67.42.93.71,1.41,1.56,3.03,3,4.15,4.75,3.51,5.49,4.38,11.46,2.65,17.78-1.4,5.12-4.09,9.49-7.76,13.29-.7.72-1.4,1.45-2.29,2.36,3.61,1.83,7.13,3.6,10.64,5.41.78.4,1.48.35,2.25-.01,3.55-1.68,7.03-3.46,9.91-6.2,6.19-5.9,9.72-12.88,8.72-21.69-.92-8.05-7.76-15.03-15.86-16.5-4.35-.79-8.75-.69-13.34.11Zm-13.2-.36c-1.62-.09-3.4-.27-5.18-.28-3.96-.02-7.9.07-11.65,1.67-6.53,2.78-10.63,7.68-11.96,14.55-1.26,6.53.66,12.52,4.49,17.86,3.69,5.15,8.74,8.58,14.53,10.99.3.12.72.2,1,.1,3.96-1.52,7.62-3.59,11.28-5.94-.54-.52-1.01-.95-1.46-1.39-4-3.88-7.02-8.37-8.49-13.81-2.03-7.52-.57-14.29,4.37-20.3.98-1.19,2.03-2.3,3.06-3.46Zm6.67,35.8c3.92-2.57,7.88-8.19,9.34-13.21,2.31-7.9-.98-15.9-8.18-19.82-.46-.25-1.21-.46-1.6-.25-6.57,3.48-10.51,9.82-9.32,17.73.99,6.54,4.85,11.42,9.76,15.56Zm.01,6.55c-1.3.79-2.63,1.61-3.96,2.41-1.34.8-2.68,1.58-4.15,2.44,4.57,1.17,13.48,1.11,16.26-.07-2.69-1.58-5.37-3.15-8.15-4.77Z"/><path class="cls-1" d="m185.18.18c2.87,1.1,5.41,2.75,7.48,5,4.51,4.91,5.23,11.17,1.12,16.81-2.03,2.79-4.54,5.03-7.5,6.77-2.35,1.38-4.3,3.23-5.85,5.42-2.26,3.2-2.13,6.8.78,9.82,1.49,1.55,3.45,2.66,5.27,3.87,1.12.75,1.69,1.62,1.49,2.73-.23,1.22-.99,2-2.18,2.02-.83.01-1.76-.25-2.49-.67-2.87-1.67-5.55-3.57-7.37-6.5-2.96-4.75-2.6-10.16.55-14.47,2.12-2.9,4.84-5.16,7.92-7.03,2.85-1.73,5.17-4.05,6.52-7.16,1.26-2.9.42-5.58-1.61-7.73-1.4-1.48-3.17-2.67-4.91-3.76-1.1-.69-2.03-1.35-2.01-2.7.01-1.33.92-2.04,2.09-2.44h.72Z"/><path class="cls-1" d="m213.99,25.66c-.19,3.45-2.02,6.41-5.04,8.69-1.59,1.2-3.28,2.29-4.75,3.62-3.7,3.34-2.71,6.57.91,9.05.53.36,1.11.63,1.66.95,1.25.72,1.71,1.98,1.19,3.26-.45,1.1-1.7,1.72-2.98,1.29-6.36-2.16-11.41-9.89-5.58-16.86,1.73-2.07,3.93-3.48,6.06-5.02,1.73-1.25,3.21-2.71,3.45-4.95.27-2.5-1.35-3.96-3.14-5.26-.58-.42-1.26-.69-1.86-1.09-1.05-.69-1.34-1.93-.81-3.19.45-1.06,1.6-1.69,2.78-1.26,4.25,1.54,8.02,5.24,8.12,10.77Z"/><path class="cls-1" d="m152.55,41.28c.05-2.97,2.19-5.65,4.91-7.95,1.46-1.23,3.14-2.2,4.61-3.42.78-.65,1.42-1.51,1.97-2.38,1.36-2.18.61-4.19-.95-5.74-.86-.85-1.95-1.5-3-2.15-1.45-.89-1.98-2.28-1.28-3.64.57-1.12,2.07-1.58,3.47-.91,4.01,1.92,6.88,4.83,7.44,9.42.3,2.42-.61,4.64-1.94,6.64-1.45,2.17-3.62,3.55-5.67,5.08-1.44,1.08-2.72,2.44-3.85,3.85-1.15,1.45-1,3.2.17,4.54,1.08,1.23,2.43,2.28,3.81,3.17,1.32.86,1.99,2.06,1.45,3.37-.48,1.18-1.96,1.84-3.32,1.3-4.15-1.63-7.88-5.69-7.82-11.19Z"/><path class="cls-1" d="m297.14,53.69c-.1,4.11-2.41,6.97-5.42,9.4-1.33,1.07-2.89,1.9-4.12,3.06-.96.9-1.73,2.09-2.32,3.28-.73,1.44-.13,3.55,1.22,4.66,1.04.85,2.2,1.57,3.35,2.26,1.22.74,1.74,1.96,1.26,3.26-.44,1.17-1.75,1.86-3.06,1.38-4.49-1.66-8.5-5.55-8.01-11.06.29-3.32,2.13-5.87,4.61-7.97.97-.82,2.15-1.39,3.1-2.23,1.27-1.13,2.57-2.29,3.57-3.64,1.28-1.72,1.09-3.67-.43-5.21-1.01-1.03-2.22-1.91-3.47-2.67-1.41-.86-1.99-1.94-1.46-3.36.46-1.24,1.82-1.81,3.3-1.3,3.92,1.36,8.02,5.62,7.89,10.15Z"/></g></svg>