<?xml version="1.0" encoding="UTF-8"?><svg id="popisky" xmlns="http://www.w3.org/2000/svg" viewBox="0 0 1288.94 113.07"><defs><style>.cls-1{fill:#493e3e;stroke-width:0px;}</style></defs><path class="cls-1" d="m9.2,104.49c-5.02-5.1-7.52-12.46-7.52-22.07V23.88h11.13v59.18c0,6.07,1.54,10.73,4.62,13.97,3.08,3.25,7.35,4.87,12.84,4.87s9.76-1.62,12.83-4.87c3.08-3.24,4.62-7.9,4.62-13.97V23.88h11.13v58.55c0,9.61-2.51,16.97-7.52,22.07-5.02,5.1-12.04,7.65-21.05,7.65s-16.04-2.55-21.06-7.65Z"/><path class="cls-1" d="m83.62,60.17h12.77v14.04h-12.77v-14.04Z"/><path class="cls-1" d="m121.3,23.88h9.61l32.25,54.5c1.18,2.11,2.95,5.99,5.31,11.63l.38-.13c-.25-5.9-.38-9.74-.38-11.51V23.88h9.99v86.75h-9.23l-32.5-55.26c-1.35-2.36-3.21-6.24-5.56-11.63l-.38.13c.34,5.4.51,9.23.51,11.51v55.26h-9.99V23.88Z"/><path class="cls-1" d="m222.72,23.88h14.29l27.57,86.75h-12.01l-5.94-19.35h-34.4l-5.94,19.35h-11.13l27.57-86.75Zm20.74,57.29l-11.76-38.57c-.59-1.85-1.26-5.06-2.02-9.61h-.51c-.76,4.64-1.43,7.84-2.02,9.61l-11.89,38.57h28.2ZM230.81,2.76h12.64l.13.38-12.39,12.52h-9.99l9.61-12.9Z"/><path class="cls-1" d="m285.76,105.82c-5.44-4.21-8.16-10.79-8.16-19.73l.13-2.53h11.51l-.13,2.66c0,5.14,1.58,9.04,4.74,11.7,3.16,2.66,7.31,3.98,12.46,3.98,5.82,0,10.31-1.24,13.47-3.73,3.16-2.48,4.74-6.05,4.74-10.69,0-3.12-.87-5.67-2.59-7.65-1.73-1.98-3.88-3.56-6.45-4.74-2.57-1.18-6.09-2.49-10.56-3.92-5.48-1.85-9.91-3.62-13.28-5.31-3.37-1.69-6.26-4.15-8.66-7.4-2.4-3.24-3.6-7.52-3.6-12.83,0-7.59,2.57-13.36,7.71-17.33,5.14-3.96,11.76-5.94,19.85-5.94s14.65,2,19.66,6.01c5.01,4,7.52,10.14,7.52,18.4v1.52h-11.51v-1.9c0-4.3-1.45-7.67-4.36-10.12-2.91-2.44-6.6-3.67-11.06-3.67-4.8,0-8.68,1.03-11.63,3.1-2.95,2.07-4.43,5.08-4.43,9.04,0,2.95.84,5.38,2.53,7.27,1.69,1.9,3.79,3.41,6.32,4.55,2.53,1.14,5.99,2.42,10.37,3.86,5.56,1.86,10.05,3.6,13.47,5.25,3.41,1.64,6.32,4.09,8.73,7.33,2.4,3.25,3.6,7.44,3.6,12.58,0,9.28-2.64,16.02-7.9,20.23-5.27,4.22-12.41,6.32-21.43,6.32s-15.62-2.11-21.05-6.32Z"/><path class="cls-1" d="m357.52,60.17h12.77v14.04h-12.77v-14.04Z"/><path class="cls-1" d="m387.37,23.88h12.27l21.5,74.48h.51l22.13-74.48h10.75l-26.43,86.75h-14.29l-26.43-86.75Z"/><path class="cls-1" d="m472.34,23.88h53.49v10.12h-42.36v27.19h36.8v10.12h-36.8v29.21h43.12v10.12h-54.25V23.88Z"/><path class="cls-1" d="m548.6,60.17h12.77v14.04h-12.77v-14.04Z"/><path class="cls-1" d="m578.44,23.88h12.27l21.5,74.48h.51l22.13-74.48h10.75l-26.43,86.75h-14.29l-26.43-86.75Z"/><path class="cls-1" d="m663.42,23.88h34.9c8.35,0,14.75,2.17,19.22,6.51,4.47,4.34,6.7,10.18,6.7,17.51,0,5.4-1.35,10.07-4.05,14.04-2.7,3.96-6.49,6.75-11.38,8.35l17.45,40.34h-12.39l-16.06-38.32h-23.27v38.32h-11.13V23.88Zm34.52,38.32c4.38,0,7.92-1.31,10.62-3.92,2.7-2.61,4.05-6.07,4.05-10.37s-1.26-7.8-3.79-10.24c-2.53-2.44-6.15-3.67-10.88-3.67h-23.39v28.2h23.39Z"/><path class="cls-1" d="m750.74,105.82c-5.44-4.21-8.16-10.79-8.16-19.73l.13-2.53h11.51l-.13,2.66c0,5.14,1.58,9.04,4.74,11.7,3.16,2.66,7.31,3.98,12.46,3.98,5.82,0,10.31-1.24,13.47-3.73,3.16-2.48,4.74-6.05,4.74-10.69,0-3.12-.87-5.67-2.59-7.65-1.73-1.98-3.88-3.56-6.45-4.74-2.57-1.18-6.09-2.49-10.56-3.92-5.48-1.85-9.91-3.62-13.28-5.31-3.37-1.69-6.26-4.15-8.66-7.4-2.4-3.24-3.6-7.52-3.6-12.83,0-7.59,2.57-13.36,7.71-17.33,5.14-3.96,11.76-5.94,19.85-5.94s14.65,2,19.66,6.01c5.01,4,7.52,10.14,7.52,18.4v1.52h-11.51v-1.9c0-4.3-1.45-7.67-4.36-10.12-2.91-2.44-6.6-3.67-11.07-3.67-4.81,0-8.68,1.03-11.63,3.1-2.95,2.07-4.43,5.08-4.43,9.04,0,2.95.84,5.38,2.53,7.27,1.69,1.9,3.79,3.41,6.32,4.55s5.98,2.42,10.37,3.86c5.56,1.86,10.05,3.6,13.47,5.25,3.41,1.64,6.32,4.09,8.72,7.33,2.4,3.25,3.6,7.44,3.6,12.58,0,9.28-2.63,16.02-7.9,20.23-5.27,4.22-12.42,6.32-21.44,6.32s-15.62-2.11-21.05-6.32Zm5.38-103.06h10.12l5.56,6.2,5.69-6.2h10.12l-10.88,13.28h-9.86l-10.75-13.28Z"/><path class="cls-1" d="m829.71,100.76c-5.99-7.59-8.98-18.76-8.98-33.51s2.99-25.92,8.98-33.51c5.98-7.59,14.37-11.38,25.16-11.38s19.18,3.79,25.17,11.38c5.98,7.59,8.98,18.76,8.98,33.51s-2.99,25.92-8.98,33.51c-5.99,7.59-14.38,11.38-25.17,11.38s-19.18-3.79-25.16-11.38Zm41.73-6.83c3.96-5.31,5.94-13.15,5.94-23.52v-6.32c0-10.37-1.98-18.21-5.94-23.52-3.96-5.31-9.48-7.97-16.57-7.97s-12.6,2.65-16.57,7.97c-3.96,5.31-5.94,13.15-5.94,23.52v6.32c0,10.37,1.98,18.21,5.94,23.52,3.96,5.31,9.48,7.97,16.57,7.97s12.6-2.65,16.57-7.97Z"/><path class="cls-1" d="m904.19,23.88h12.27l21.5,74.48h.51l22.13-74.48h10.75l-26.43,86.75h-14.29l-26.43-86.75Z"/><path class="cls-1" d="m989.17,23.88h11.13v86.75h-11.13V23.88Z"/><path class="cls-1" d="m1022.43,67.25c0-29.93,11.38-44.89,34.14-44.89,9.19,0,16.52,2.8,22,8.41,5.48,5.61,8.22,13.76,8.22,24.47h-11.38c0-7.42-1.69-13.04-5.06-16.88-3.37-3.83-7.97-5.75-13.78-5.75-7.59,0-13.24,2.61-16.95,7.84-3.71,5.23-5.56,13.11-5.56,23.65v6.32c0,10.54,1.85,18.42,5.56,23.65,3.71,5.23,9.36,7.84,16.95,7.84,5.98,0,10.69-1.9,14.1-5.69,3.41-3.79,5.12-9.36,5.12-16.69h11c0,10.79-2.72,18.93-8.16,24.41-5.44,5.48-12.79,8.22-22.07,8.22-22.76,0-34.14-14.96-34.14-44.89Z"/><path class="cls-1" d="m1115.37,2.76h12.65l.13.38-12.39,12.52h-9.99l9.61-12.9Zm-6.58,21.12h11.13v86.75h-11.13V23.88Z"/><path class="cls-1" d="m1142.05,67.25c0-29.93,11.38-44.89,34.14-44.89,9.19,0,16.52,2.8,22,8.41,5.48,5.61,8.22,13.76,8.22,24.47h-11.38c0-7.42-1.69-13.04-5.06-16.88-3.37-3.83-7.97-5.75-13.78-5.75-7.59,0-13.24,2.61-16.95,7.84-3.71,5.23-5.56,13.11-5.56,23.65v6.32c0,10.54,1.85,18.42,5.56,23.65,3.71,5.23,9.36,7.84,16.95,7.84,5.98,0,10.69-1.9,14.1-5.69,3.41-3.79,5.12-9.36,5.12-16.69h11c0,10.79-2.72,18.93-8.16,24.41-5.44,5.48-12.79,8.22-22.07,8.22-22.76,0-34.14-14.96-34.14-44.89Z"/><path class="cls-1" d="m1228.42,23.88h11.13v37.3h34.9V23.88h11.13v86.75h-11.13v-39.33h-34.9v39.33h-11.13V23.88Z"/></svg>