<?xml version="1.0" encoding="UTF-8"?><svg id="popisky" xmlns="http://www.w3.org/2000/svg" viewBox="0 0 1539.41 126.67"><defs><style>.cls-1{fill:#eee3d7;stroke-width:0px;}</style></defs><path class="cls-1" d="m32.03,124.81c-18.84,0-29.97-9.74-29.97-26.05,0-6.58.38-11.63.38-17.45v-6.07c0-16.44-.51-33-1.26-41.6h13.91c-.76,8.72-1.26,25.42-1.26,41.48v15.55c0,16.19,6.32,23.52,20.11,23.52,8.22,0,16.44-3.16,25.16-9.99v-28.96c0-16.44-.51-33-1.27-41.6h13.91c-.76,8.72-1.26,25.42-1.26,41.48v6.07c0,16.44.51,33,1.26,41.6h-10.62c-.38-2.02-.89-5.82-1.39-9.99-6.2,4.3-13.28,8.35-18.59,11-2.15.63-5.56,1.01-9.1,1.01Z"/><path class="cls-1" d="m107.52,91.55c-4.43,0-7.59-3.29-7.59-7.97,0-5.18,3.16-8.72,8.09-8.72,4.55,0,7.59,3.29,7.59,7.97,0,5.18-3.16,8.73-8.09,8.73Z"/><path class="cls-1" d="m197.43,122.78c-2.15-4.93-16.31-29.08-42.23-73.59v31.99c0,16.44.51,33,1.26,41.6h-12.77c.76-8.72,1.26-25.42,1.26-41.48v-6.07c0-16.44-.51-33-1.26-41.6h16.31c3.16,7.33,17.83,32.24,41.98,73.97v-32.37c0-16.44-.51-33-1.27-41.6h12.77c-.76,8.72-1.26,25.42-1.26,41.48v6.07c0,16.44.51,33,1.26,41.6h-16.06Z"/><path class="cls-1" d="m255.09,100.65c-3.79,11.38-6.45,19.22-7.21,22.13h-12.77c-.13-.51-.13-4.55,0-4.93,6.7-14.04,20.23-47.8,34.27-83.96l11.38-.51c13.91,36.67,27.31,70.43,33.89,84.47.13.38.13,4.43,0,4.93h-13.28c-.88-2.91-3.54-10.87-7.59-22.25-3.67-.25-6.96-.25-12.14-.25-13.28,0-20.86.13-26.55.38Zm35.03-10.24c-4.43-12.27-9.86-27.31-16.06-44.13-6.07,16.82-11.25,31.99-15.55,44.26,2.53.13,5.31.13,8.98.13,10.5,0,17.45-.13,22.63-.25Zm-24.78-65.75l-3.29-6.32c9.48-5.56,19.22-11.51,26.17-16.06l6.45,8.72c.25.63.25,2.53,0,3.16-6.83,2.02-18.08,6.2-29.34,10.5Z"/><path class="cls-1" d="m356.76,125.31c-9.74,0-19.98-3.54-26.3-8.6l4.8-12.39c7.97,6.83,16.06,10.5,24.78,10.5,9.48,0,15.17-4.93,15.17-13.4,0-6.7-3.54-10.87-12.39-14.79l-12.77-5.69c-11.89-5.31-17.58-12.65-17.58-23.52,0-8.09,3.04-14.54,8.98-18.84,6.2-4.43,17.58-7.46,18.97-7.46,8.35,0,16.95,2.4,24.15,6.32l-4.55,12.27c-.51.13-2.4.13-2.91,0l-17.96-8.6h-.76c-9.36,0-14.79,4.81-14.79,13.02,0,6.58,3.67,10.75,13.02,14.92l12.77,5.69c11.63,5.18,16.94,12.52,16.94,23.39,0,8.35-3.03,14.79-8.98,18.97-6.2,4.43-19.22,8.22-20.61,8.22Z"/><path class="cls-1" d="m416.45,91.55c-4.43,0-7.59-3.29-7.59-7.97,0-5.18,3.16-8.72,8.09-8.72,4.55,0,7.59,3.29,7.59,7.97,0,5.18-3.16,8.73-8.09,8.73Z"/><path class="cls-1" d="m476.64,123.03c-13.66-36.67-26.68-70.43-33.13-84.47-.13-.38-.13-4.43,0-4.93h13.4c1.77,6.45,12.14,36.42,26.43,76,13.66-39.58,23.65-69.55,25.29-76h12.9c.13.51.13,4.55,0,4.93-6.58,14.04-19.85,47.8-33.51,83.96l-11.38.51Z"/><path class="cls-1" d="m547.96,91.55c-4.43,0-7.59-3.29-7.59-7.97,0-5.18,3.16-8.72,8.09-8.72,4.55,0,7.59,3.29,7.59,7.97,0,5.18-3.16,8.73-8.09,8.73Z"/><path class="cls-1" d="m593.99,100.65c-3.79,11.38-6.45,19.22-7.21,22.13h-12.77c-.13-.51-.13-4.55,0-4.93,6.7-14.04,20.23-47.8,34.27-83.96l11.38-.51c13.91,36.67,27.31,70.43,33.89,84.47.13.38.13,4.43,0,4.93h-13.28c-.88-2.91-3.54-10.87-7.59-22.25-3.67-.25-6.96-.25-12.14-.25-13.28,0-20.86.13-26.55.38Zm35.03-10.24c-4.43-12.27-9.86-27.31-16.06-44.13-6.07,16.82-11.25,31.99-15.55,44.26,2.53.13,5.31.13,8.98.13,10.5,0,17.45-.13,22.63-.25Z"/><path class="cls-1" d="m704.77,124.43c-5.31,0-24.15-1.64-29.34-1.64.76-8.72,1.26-25.42,1.26-41.48v-6.07c0-16.44-.51-33-1.26-41.6,8.09,0,28.58-1.64,29.84-1.64,25.92,0,43.12,18.08,43.12,45.14,0,16.31-6.32,29.08-18.59,37.3-9.61,6.45-23.77,9.99-25.04,9.99Zm31.11-44.64c0-22.51-13.91-37.56-34.65-37.56-2.66,0-7.59.25-12.52.63-.38,8.98-.63,20.74-.63,32.25v6.07c0,11.63.25,23.27.63,32.12,5.82.51,12.14.88,15.81.88,18.97,0,31.36-13.15,31.36-34.39Z"/><path class="cls-1" d="m815.79,123.03c-10.88-29.34-21.37-56.78-27.82-73.72l-2.28,31.87c-1.01,14.67-1.77,33-1.52,41.6h-12.77c1.26-8.72,3.03-26.81,4.05-41.48l.51-7.21c1.01-14.54,1.9-31.87,1.77-40.46h17.45c1.77,6.45,12.65,36.42,27.44,76,14.42-39.58,24.79-69.55,26.68-76h17.58c-.13,8.72.76,25.8,1.77,40.34l.51,7.21c1.01,14.42,2.78,32.88,4.05,41.6h-14.04c.25-8.6-.51-26.93-1.52-41.48l-2.28-32.24c-6.45,17.07-16.94,44.51-27.95,73.47l-11.63.51Z"/><path class="cls-1" d="m902.04,122.78c.76-8.72,1.26-25.42,1.26-41.48v-6.07c0-16.44-.51-33-1.26-41.6h13.91c-.76,8.72-1.26,25.42-1.26,41.48v6.07c0,16.44.51,33,1.26,41.6h-13.91Z"/><path class="cls-1" d="m1001.43,122.78c-2.15-4.93-16.31-29.08-42.23-73.59v31.99c0,16.44.51,33,1.26,41.6h-12.77c.76-8.72,1.26-25.42,1.26-41.48v-6.07c0-16.44-.51-33-1.26-41.6h16.31c3.16,7.33,17.83,32.24,41.98,73.97v-32.37c0-16.44-.51-33-1.26-41.6h12.77c-.76,8.72-1.27,25.42-1.27,41.48v6.07c0,16.44.51,33,1.27,41.6h-16.06Z"/><path class="cls-1" d="m1049.23,122.78c.76-8.72,1.26-25.42,1.26-41.48v-6.07c0-16.44-.51-33-1.26-41.6h13.91c-.76,8.72-1.26,25.42-1.26,41.48v6.07c0,16.44.51,33,1.26,41.6h-13.91Z"/><path class="cls-1" d="m1115.11,125.31c-9.74,0-19.98-3.54-26.3-8.6l4.81-12.39c7.96,6.83,16.06,10.5,24.78,10.5,9.48,0,15.17-4.93,15.17-13.4,0-6.7-3.54-10.87-12.39-14.79l-12.77-5.69c-11.88-5.31-17.58-12.65-17.58-23.52,0-8.09,3.04-14.54,8.98-18.84,6.2-4.43,17.58-7.46,18.97-7.46,8.35,0,16.95,2.4,24.15,6.32l-4.55,12.27c-.51.13-2.4.13-2.91,0l-17.96-8.6h-.76c-9.36,0-14.79,4.81-14.79,13.02,0,6.58,3.67,10.75,13.02,14.92l12.77,5.69c11.63,5.18,16.94,12.52,16.94,23.39,0,8.35-3.03,14.79-8.98,18.97-6.2,4.43-19.22,8.22-20.61,8.22Z"/><path class="cls-1" d="m1188.46,122.78c.76-8.72,1.27-25.42,1.27-41.48v-6.07c0-11.51-.25-23.01-.63-31.87-9.99.13-20.23.88-24.91,1.77-.51.13-3.79-.13-4.3-.38l.51-11.63c5.82.25,19.73.51,33,.51h4.3c13.28,0,27.19-.25,33-.51l-1.26,11.76c-.51.25-3.79.51-4.3.38-4.17-.88-13.66-1.64-23.39-1.9-.38,8.98-.63,20.49-.63,31.74v6.07c0,16.44.51,33,1.27,41.6h-13.91Z"/><path class="cls-1" d="m1289.24,87.63c11.25,13.02,22,24.78,27.69,30.22.13.51.13,4.43,0,4.93l-13.53.38c-4.3-6.07-14.54-18.59-26.18-31.99-3.41,0-7.84-.38-13.02-.76.25,13.15.63,25.42,1.26,32.37h-13.91c.76-8.72,1.26-25.42,1.26-41.48v-6.07c0-16.44-.51-33-1.26-41.6,8.34,0,29.34-1.64,30.6-1.64,17.2,0,28.71,10.88,28.71,27.19,0,10.24-4.43,18.46-13.03,24.03-2.53,1.64-5.69,3.16-8.6,4.43Zm8.85-26.05c0-12.27-7.46-19.6-20.11-19.6-2.78,0-7.97.25-13.15.63-.38,8.98-.63,20.86-.63,32.5v5.31c5.06.38,10.24.63,13.4.63,12.9,0,20.49-7.21,20.49-19.47Z"/><path class="cls-1" d="m1349.94,100.65c-3.79,11.38-6.45,19.22-7.21,22.13h-12.77c-.13-.51-.13-4.55,0-4.93,6.7-14.04,20.23-47.8,34.27-83.96l11.38-.51c13.91,36.67,27.31,70.43,33.89,84.47.13.38.13,4.43,0,4.93h-13.28c-.89-2.91-3.54-10.87-7.59-22.25-3.67-.25-6.96-.25-12.14-.25-13.28,0-20.87.13-26.55.38Zm35.03-10.24c-4.42-12.27-9.86-27.31-16.06-44.13-6.07,16.82-11.25,31.99-15.55,44.26,2.53.13,5.31.13,8.98.13,10.49,0,17.45-.13,22.63-.25Z"/><path class="cls-1" d="m1465.77,125.18c-25.8,0-41.86-17.7-41.86-44.26,0-17.45,6.96-32.37,18.59-40.08,8.98-5.94,23.52-9.74,25.04-9.74,7.71,0,17.96,2.66,25.79,6.7l-4.43,11.89c-.51.13-2.4.13-2.91,0l-17.07-7.71c-1.01-.13-2.02-.13-3.16-.13-17.7,0-29.21,13.28-29.21,35.79s11.89,36.29,31.99,36.29c7.71,0,15.43-2.02,23.39-6.32l3.41,8.85c-10.62,5.94-19.6,8.72-29.59,8.72Z"/><path class="cls-1" d="m1518.13,122.78c.76-8.72,1.26-25.42,1.26-41.48v-6.07c0-16.44-.51-33-1.26-41.6h13.91c-.76,8.72-1.26,25.42-1.26,41.48v6.07c0,16.44.51,33,1.26,41.6h-13.91Z"/></svg>